<mxfile host="app.diagrams.net" agent="Mozilla/5.0 (Windows NT 10.0; Win64; x64) AppleWebKit/537.36 (KHTML, like Gecko) Chrome/138.0.0.0 Safari/537.36" version="28.0.7">
  <diagram name="Page-1" id="qlOULI5kfTJ6-676rxJu">
    <mxGraphModel dx="1128" dy="596" grid="1" gridSize="10" guides="1" tooltips="1" connect="1" arrows="1" fold="1" page="1" pageScale="1" pageWidth="827" pageHeight="1169" math="0" shadow="0">
      <root>
        <mxCell id="0" />
        <mxCell id="1" parent="0" />
        <mxCell id="hd-TnED8jWvopgd7xVO8-11" style="edgeStyle=orthogonalEdgeStyle;rounded=0;orthogonalLoop=1;jettySize=auto;html=1;endArrow=none;endFill=0;" edge="1" parent="1" source="hd-TnED8jWvopgd7xVO8-1" target="hd-TnED8jWvopgd7xVO8-6">
          <mxGeometry relative="1" as="geometry" />
        </mxCell>
        <mxCell id="hd-TnED8jWvopgd7xVO8-1" value="Cliente" style="rounded=1;whiteSpace=wrap;html=1;" vertex="1" parent="1">
          <mxGeometry x="20" y="50" width="120" height="60" as="geometry" />
        </mxCell>
        <mxCell id="hd-TnED8jWvopgd7xVO8-12" style="edgeStyle=orthogonalEdgeStyle;rounded=0;orthogonalLoop=1;jettySize=auto;html=1;endArrow=none;endFill=0;" edge="1" parent="1" source="hd-TnED8jWvopgd7xVO8-2" target="hd-TnED8jWvopgd7xVO8-7">
          <mxGeometry relative="1" as="geometry" />
        </mxCell>
        <mxCell id="hd-TnED8jWvopgd7xVO8-2" value="Tienda Compensar" style="rounded=1;whiteSpace=wrap;html=1;" vertex="1" parent="1">
          <mxGeometry x="230" y="50" width="120" height="60" as="geometry" />
        </mxCell>
        <mxCell id="hd-TnED8jWvopgd7xVO8-13" style="edgeStyle=orthogonalEdgeStyle;rounded=0;orthogonalLoop=1;jettySize=auto;html=1;endArrow=none;endFill=0;" edge="1" parent="1" source="hd-TnED8jWvopgd7xVO8-3" target="hd-TnED8jWvopgd7xVO8-8">
          <mxGeometry relative="1" as="geometry" />
        </mxCell>
        <mxCell id="hd-TnED8jWvopgd7xVO8-3" value="API de Pagos" style="rounded=1;whiteSpace=wrap;html=1;" vertex="1" parent="1">
          <mxGeometry x="440" y="50" width="120" height="60" as="geometry" />
        </mxCell>
        <mxCell id="hd-TnED8jWvopgd7xVO8-14" style="edgeStyle=orthogonalEdgeStyle;rounded=0;orthogonalLoop=1;jettySize=auto;html=1;endArrow=none;endFill=0;" edge="1" parent="1" source="hd-TnED8jWvopgd7xVO8-4" target="hd-TnED8jWvopgd7xVO8-9">
          <mxGeometry relative="1" as="geometry" />
        </mxCell>
        <mxCell id="hd-TnED8jWvopgd7xVO8-4" value="PayU" style="rounded=1;whiteSpace=wrap;html=1;" vertex="1" parent="1">
          <mxGeometry x="650" y="50" width="120" height="60" as="geometry" />
        </mxCell>
        <mxCell id="hd-TnED8jWvopgd7xVO8-15" style="edgeStyle=orthogonalEdgeStyle;rounded=0;orthogonalLoop=1;jettySize=auto;html=1;endArrow=none;endFill=0;" edge="1" parent="1" source="hd-TnED8jWvopgd7xVO8-5" target="hd-TnED8jWvopgd7xVO8-10">
          <mxGeometry relative="1" as="geometry" />
        </mxCell>
        <mxCell id="hd-TnED8jWvopgd7xVO8-5" value="P치gina Intermedia" style="rounded=1;whiteSpace=wrap;html=1;" vertex="1" parent="1">
          <mxGeometry x="850" y="50" width="120" height="60" as="geometry" />
        </mxCell>
        <mxCell id="hd-TnED8jWvopgd7xVO8-6" value="Cliente" style="rounded=1;whiteSpace=wrap;html=1;" vertex="1" parent="1">
          <mxGeometry x="20" y="525" width="120" height="60" as="geometry" />
        </mxCell>
        <mxCell id="hd-TnED8jWvopgd7xVO8-7" value="Tienda Compensar" style="rounded=1;whiteSpace=wrap;html=1;" vertex="1" parent="1">
          <mxGeometry x="230" y="525" width="120" height="60" as="geometry" />
        </mxCell>
        <mxCell id="hd-TnED8jWvopgd7xVO8-8" value="API de Pagos" style="rounded=1;whiteSpace=wrap;html=1;" vertex="1" parent="1">
          <mxGeometry x="440" y="525" width="120" height="60" as="geometry" />
        </mxCell>
        <mxCell id="hd-TnED8jWvopgd7xVO8-9" value="PayU" style="rounded=1;whiteSpace=wrap;html=1;" vertex="1" parent="1">
          <mxGeometry x="650" y="525" width="120" height="60" as="geometry" />
        </mxCell>
        <mxCell id="hd-TnED8jWvopgd7xVO8-10" value="P치gina Intermedia" style="rounded=1;whiteSpace=wrap;html=1;" vertex="1" parent="1">
          <mxGeometry x="850" y="525" width="120" height="60" as="geometry" />
        </mxCell>
        <mxCell id="hd-TnED8jWvopgd7xVO8-17" value="" style="endArrow=classic;html=1;rounded=0;" edge="1" parent="1">
          <mxGeometry width="50" height="50" relative="1" as="geometry">
            <mxPoint x="80" y="160" as="sourcePoint" />
            <mxPoint x="290" y="160" as="targetPoint" />
          </mxGeometry>
        </mxCell>
        <mxCell id="hd-TnED8jWvopgd7xVO8-18" value="Inicia el proceso de pago" style="text;html=1;align=center;verticalAlign=middle;resizable=0;points=[];autosize=1;strokeColor=none;fillColor=none;" vertex="1" parent="1">
          <mxGeometry x="100" y="130" width="160" height="30" as="geometry" />
        </mxCell>
        <mxCell id="hd-TnED8jWvopgd7xVO8-19" value="" style="endArrow=classic;html=1;rounded=0;" edge="1" parent="1">
          <mxGeometry width="50" height="50" relative="1" as="geometry">
            <mxPoint x="290" y="200" as="sourcePoint" />
            <mxPoint x="500" y="200" as="targetPoint" />
          </mxGeometry>
        </mxCell>
        <mxCell id="hd-TnED8jWvopgd7xVO8-20" value="Envia Informaci칩n de la TX" style="edgeLabel;html=1;align=center;verticalAlign=middle;resizable=0;points=[];" vertex="1" connectable="0" parent="hd-TnED8jWvopgd7xVO8-19">
          <mxGeometry x="-0.0846" relative="1" as="geometry">
            <mxPoint x="4" y="-10" as="offset" />
          </mxGeometry>
        </mxCell>
        <mxCell id="hd-TnED8jWvopgd7xVO8-21" value="" style="endArrow=classic;html=1;rounded=0;" edge="1" parent="1">
          <mxGeometry width="50" height="50" relative="1" as="geometry">
            <mxPoint x="500" y="240" as="sourcePoint" />
            <mxPoint x="710" y="240" as="targetPoint" />
          </mxGeometry>
        </mxCell>
        <mxCell id="hd-TnED8jWvopgd7xVO8-22" value="Construye petici칩n Response_URL" style="edgeLabel;html=1;align=center;verticalAlign=middle;resizable=0;points=[];" vertex="1" connectable="0" parent="hd-TnED8jWvopgd7xVO8-21">
          <mxGeometry x="-0.3184" y="2" relative="1" as="geometry">
            <mxPoint x="29" y="-8" as="offset" />
          </mxGeometry>
        </mxCell>
        <mxCell id="hd-TnED8jWvopgd7xVO8-24" value="" style="endArrow=classic;html=1;rounded=0;" edge="1" parent="1">
          <mxGeometry width="50" height="50" relative="1" as="geometry">
            <mxPoint x="710" y="280" as="sourcePoint" />
            <mxPoint x="910" y="280" as="targetPoint" />
          </mxGeometry>
        </mxCell>
        <mxCell id="hd-TnED8jWvopgd7xVO8-25" value="Redirecciona pag Intermedia" style="edgeLabel;html=1;align=center;verticalAlign=middle;resizable=0;points=[];" vertex="1" connectable="0" parent="hd-TnED8jWvopgd7xVO8-24">
          <mxGeometry x="-0.2936" y="1" relative="1" as="geometry">
            <mxPoint x="29" y="-9" as="offset" />
          </mxGeometry>
        </mxCell>
        <mxCell id="hd-TnED8jWvopgd7xVO8-28" value="" style="endArrow=classic;html=1;rounded=0;" edge="1" parent="1">
          <mxGeometry width="50" height="50" relative="1" as="geometry">
            <mxPoint x="910" y="320" as="sourcePoint" />
            <mxPoint x="910" y="360" as="targetPoint" />
            <Array as="points">
              <mxPoint x="940" y="320" />
              <mxPoint x="940" y="360" />
            </Array>
          </mxGeometry>
        </mxCell>
        <mxCell id="hd-TnED8jWvopgd7xVO8-29" value="Captura y cifra los datos" style="edgeLabel;html=1;align=center;verticalAlign=middle;resizable=0;points=[];" vertex="1" connectable="0" parent="hd-TnED8jWvopgd7xVO8-28">
          <mxGeometry x="-0.0109" y="3" relative="1" as="geometry">
            <mxPoint x="57" y="-1" as="offset" />
          </mxGeometry>
        </mxCell>
        <mxCell id="hd-TnED8jWvopgd7xVO8-30" value="" style="endArrow=classic;html=1;rounded=0;dashed=1;entryX=-0.008;entryY=1.042;entryDx=0;entryDy=0;entryPerimeter=0;" edge="1" parent="1" target="hd-TnED8jWvopgd7xVO8-31">
          <mxGeometry width="50" height="50" relative="1" as="geometry">
            <mxPoint x="910" y="400" as="sourcePoint" />
            <mxPoint x="80" y="400" as="targetPoint" />
          </mxGeometry>
        </mxCell>
        <mxCell id="hd-TnED8jWvopgd7xVO8-31" value="Redirecciona a /thankyoucode/{cadenacifrada}" style="text;html=1;align=center;verticalAlign=middle;resizable=0;points=[];autosize=1;strokeColor=none;fillColor=none;" vertex="1" parent="1">
          <mxGeometry x="290" y="370" width="270" height="30" as="geometry" />
        </mxCell>
        <mxCell id="hd-TnED8jWvopgd7xVO8-32" value="" style="endArrow=classic;html=1;rounded=0;" edge="1" parent="1">
          <mxGeometry width="50" height="50" relative="1" as="geometry">
            <mxPoint x="290" y="420" as="sourcePoint" />
            <mxPoint x="290" y="460" as="targetPoint" />
            <Array as="points">
              <mxPoint x="320" y="420" />
              <mxPoint x="320" y="460" />
            </Array>
          </mxGeometry>
        </mxCell>
        <mxCell id="hd-TnED8jWvopgd7xVO8-33" value="Decodifica y muestra mensaje" style="edgeLabel;html=1;align=center;verticalAlign=middle;resizable=0;points=[];" vertex="1" connectable="0" parent="hd-TnED8jWvopgd7xVO8-32">
          <mxGeometry x="-0.0109" y="3" relative="1" as="geometry">
            <mxPoint x="57" y="-1" as="offset" />
          </mxGeometry>
        </mxCell>
      </root>
    </mxGraphModel>
  </diagram>
</mxfile>
